<?xml version="1.0" encoding="UTF-8"?>
<svg id="LOGO" xmlns="http://www.w3.org/2000/svg" viewBox="0 0 500 500">
  <defs>
    <style>
      .cls-1 {
        fill: #262425;
      }
    </style>
  </defs>
  <path class="cls-1" d="M71.03,229.72c15.12,0,23.66,9.16,23.66,20.28s-8.54,20.28-23.66,20.28h-14.73v-40.56h14.73ZM71.09,235.89h-7.62v28.22h7.62c10.17,0,16.42-5.8,16.42-14.11s-6.26-14.11-16.42-14.11Z"/>
  <path class="cls-1" d="M105.3,270.28h-7.36l18.9-40.56h7.36l18.9,40.56h-7.62l-4.3-9.16h-21.57l-4.3,9.16ZM120.42,238.03l-7.95,16.92h15.84l-7.89-16.92Z"/>
  <path class="cls-1" d="M162.97,261.97l14.53-32.25h7.36l-18.31,40.56h-7.36l-18.31-40.56h7.62l14.47,32.25Z"/>
  <path class="cls-1" d="M198.1,270.28h-7.17v-40.56h7.17v40.56Z"/>
  <path class="cls-1" d="M223.84,229.72c15.12,0,23.66,9.16,23.66,20.28s-8.54,20.28-23.66,20.28h-14.73v-40.56h14.73ZM223.9,235.89h-7.62v28.22h7.62c10.17,0,16.42-5.8,16.42-14.11s-6.26-14.11-16.42-14.11Z"/>
  <path class="cls-1" d="M304.71,259.04c0,6.23-4.43,11.24-14.08,11.24h-19.81v-40.56h19.81c9.64,0,14.08,5.07,14.08,11.3,0,3.48-1.3,6.84-5.34,8.98,4.04,2.14,5.34,5.5,5.34,9.04ZM290.18,246.88c4.5,0,7.36-1.83,7.36-5.44s-2.87-5.56-7.36-5.56h-12.19v10.99h12.19ZM290.18,264.11c4.5,0,7.36-1.89,7.36-5.5s-2.87-5.56-7.36-5.56h-12.19v11.06h12.19Z"/>
  <path class="cls-1" d="M315.98,270.28h-7.36l18.9-40.56h7.36l18.9,40.56h-7.62l-4.3-9.16h-21.57l-4.3,9.16ZM331.1,238.03l-7.95,16.92h15.84l-7.89-16.92Z"/>
  <path class="cls-1" d="M363.61,250c0,8.55,6.45,14.9,15.12,14.9,4.95,0,8.86-2.08,11.34-5.25h7.88c-3.45,6.84-10.17,11.42-19.22,11.42-12.64,0-22.29-9.04-22.29-21.07s9.64-21.07,22.29-21.07c9.06,0,15.77,4.64,19.22,11.48h-7.88c-2.48-3.18-6.39-5.31-11.34-5.31-8.67,0-15.12,6.35-15.12,14.9Z"/>
  <path class="cls-1" d="M436.54,270.28v-17.22h-23.2v17.22h-7.17v-40.56h7.17v17.16h23.2v-17.16h7.17v40.56h-7.17Z"/>
</svg>